<svg xmlns="http://www.w3.org/2000/svg" version="1.1" xmlns:xlink="http://www.w3.org/1999/xlink" xmlns:svgjs="http://svgjs.dev/svgjs" viewBox="0 0 800 800"><defs><linearGradient x1="50%" y1="0%" x2="50%" y2="100%" id="cccoil-grad"><stop stop-color="#2F2504" stop-opacity="1" offset="0%"></stop><stop stop-color="#73DE04" stop-opacity="1" offset="100%"></stop></linearGradient></defs><g stroke="url(#cccoil-grad)" fill="none" stroke-linecap="round"><circle r="319" cx="400" cy="400" stroke-width="7" stroke-dasharray="1744 2004" transform="rotate(360, 400, 400)" stroke-dashoffset="10" opacity="1.00"></circle><circle r="304.5" cx="400" cy="400" stroke-width="7" stroke-dasharray="1585 1913" transform="rotate(343, 400, 400)" stroke-dashoffset="10" opacity="0.95"></circle><circle r="290" cx="400" cy="400" stroke-width="7" stroke-dasharray="1434 1822" transform="rotate(326, 400, 400)" stroke-dashoffset="10" opacity="0.91"></circle><circle r="275.5" cx="400" cy="400" stroke-width="7" stroke-dasharray="1291 1731" transform="rotate(309, 400, 400)" stroke-dashoffset="10" opacity="0.86"></circle><circle r="261" cx="400" cy="400" stroke-width="7" stroke-dasharray="1155 1640" transform="rotate(291, 400, 400)" stroke-dashoffset="10" opacity="0.82"></circle><circle r="246.5" cx="400" cy="400" stroke-width="7" stroke-dasharray="1027 1549" transform="rotate(274, 400, 400)" stroke-dashoffset="10" opacity="0.77"></circle><circle r="232" cx="400" cy="400" stroke-width="7" stroke-dasharray="906 1458" transform="rotate(257, 400, 400)" stroke-dashoffset="10" opacity="0.73"></circle><circle r="217.5" cx="400" cy="400" stroke-width="7" stroke-dasharray="793 1367" transform="rotate(240, 400, 400)" stroke-dashoffset="10" opacity="0.68"></circle><circle r="203" cx="400" cy="400" stroke-width="7" stroke-dasharray="687 1275" transform="rotate(223, 400, 400)" stroke-dashoffset="10" opacity="0.64"></circle><circle r="188.5" cx="400" cy="400" stroke-width="7" stroke-dasharray="589 1184" transform="rotate(206, 400, 400)" stroke-dashoffset="10" opacity="0.59"></circle><circle r="174" cx="400" cy="400" stroke-width="7" stroke-dasharray="498 1093" transform="rotate(189, 400, 400)" stroke-dashoffset="10" opacity="0.55"></circle><circle r="159.5" cx="400" cy="400" stroke-width="7" stroke-dasharray="415 1002" transform="rotate(171, 400, 400)" stroke-dashoffset="10" opacity="0.50"></circle><circle r="145" cx="400" cy="400" stroke-width="7" stroke-dasharray="340 911" transform="rotate(154, 400, 400)" stroke-dashoffset="10" opacity="0.46"></circle><circle r="130.5" cx="400" cy="400" stroke-width="7" stroke-dasharray="272 820" transform="rotate(137, 400, 400)" stroke-dashoffset="10" opacity="0.41"></circle><circle r="116" cx="400" cy="400" stroke-width="7" stroke-dasharray="211 729" transform="rotate(120, 400, 400)" stroke-dashoffset="10" opacity="0.37"></circle><circle r="101.5" cx="400" cy="400" stroke-width="7" stroke-dasharray="159 638" transform="rotate(103, 400, 400)" stroke-dashoffset="10" opacity="0.32"></circle><circle r="87" cx="400" cy="400" stroke-width="7" stroke-dasharray="113 547" transform="rotate(86, 400, 400)" stroke-dashoffset="10" opacity="0.28"></circle><circle r="72.5" cx="400" cy="400" stroke-width="7" stroke-dasharray="75 456" transform="rotate(69, 400, 400)" stroke-dashoffset="10" opacity="0.23"></circle><circle r="58" cx="400" cy="400" stroke-width="7" stroke-dasharray="45 364" transform="rotate(51, 400, 400)" stroke-dashoffset="10" opacity="0.19"></circle><circle r="43.5" cx="400" cy="400" stroke-width="7" stroke-dasharray="23 273" transform="rotate(34, 400, 400)" stroke-dashoffset="10" opacity="0.14"></circle><circle r="29" cx="400" cy="400" stroke-width="7" stroke-dasharray="8 182" transform="rotate(17, 400, 400)" stroke-dashoffset="10" opacity="0.10"></circle><circle r="14.5" cx="400" cy="400" stroke-width="7" stroke-dasharray="0 91" stroke-dashoffset="10" opacity="0.05"></circle></g></svg>