<svg xmlns="http://www.w3.org/2000/svg" version="1.1" xmlns:xlink="http://www.w3.org/1999/xlink" xmlns:svgjs="http://svgjs.dev/svgjs" viewBox="0 0 800 800"><g fill="none" stroke-width="5.25" stroke="#75de04" stroke-linecap="round"><line x1="584.5" y1="400" x2="215.5" y2="400" transform="rotate(0, 400, 400)" opacity="0.54"></line><line x1="271.5" y1="400" x2="528.5" y2="400" transform="rotate(3, 400, 400)" opacity="0.81"></line><line x1="248" y1="400" x2="552" y2="400" transform="rotate(6, 400, 400)" opacity="0.15"></line><line x1="694.5" y1="400" x2="105.5" y2="400" transform="rotate(9, 400, 400)" opacity="0.67"></line><line x1="351.5" y1="400" x2="448.5" y2="400" transform="rotate(12, 400, 400)" opacity="0.59"></line><line x1="557.5" y1="400" x2="242.5" y2="400" transform="rotate(15, 400, 400)" opacity="0.64"></line><line x1="410" y1="400" x2="390" y2="400" transform="rotate(18, 400, 400)" opacity="0.24"></line><line x1="133.5" y1="400" x2="666.5" y2="400" transform="rotate(21, 400, 400)" opacity="0.45"></line><line x1="213" y1="400" x2="587" y2="400" transform="rotate(24, 400, 400)" opacity="0.55"></line><line x1="329.5" y1="400" x2="470.5" y2="400" transform="rotate(27, 400, 400)" opacity="0.97"></line><line x1="399.5" y1="400" x2="400.5" y2="400" transform="rotate(30, 400, 400)" opacity="0.96"></line><line x1="161.5" y1="400" x2="638.5" y2="400" transform="rotate(33, 400, 400)" opacity="0.94"></line><line x1="95" y1="400" x2="705" y2="400" transform="rotate(36, 400, 400)" opacity="0.65"></line><line x1="693.5" y1="400" x2="106.5" y2="400" transform="rotate(39, 400, 400)" opacity="0.65"></line><line x1="246" y1="400" x2="554" y2="400" transform="rotate(42, 400, 400)" opacity="0.42"></line><line x1="156" y1="400" x2="644" y2="400" transform="rotate(45, 400, 400)" opacity="0.16"></line><line x1="595" y1="400" x2="205" y2="400" transform="rotate(48, 400, 400)" opacity="0.24"></line><line x1="287" y1="400" x2="513" y2="400" transform="rotate(51, 400, 400)" opacity="0.19"></line><line x1="209.5" y1="400" x2="590.5" y2="400" transform="rotate(54, 400, 400)" opacity="0.58"></line><line x1="318.5" y1="400" x2="481.5" y2="400" transform="rotate(57, 400, 400)" opacity="0.15"></line><line x1="236.5" y1="400" x2="563.5" y2="400" transform="rotate(60, 400, 400)" opacity="0.20"></line><line x1="261.5" y1="400" x2="538.5" y2="400" transform="rotate(63, 400, 400)" opacity="0.48"></line><line x1="240.5" y1="400" x2="559.5" y2="400" transform="rotate(66, 400, 400)" opacity="0.17"></line><line x1="287" y1="400" x2="513" y2="400" transform="rotate(69, 400, 400)" opacity="0.51"></line><line x1="624.5" y1="400" x2="175.5" y2="400" transform="rotate(72, 400, 400)" opacity="0.11"></line><line x1="418.5" y1="400" x2="381.5" y2="400" transform="rotate(75, 400, 400)" opacity="0.74"></line><line x1="352.5" y1="400" x2="447.5" y2="400" transform="rotate(78, 400, 400)" opacity="0.92"></line><line x1="628" y1="400" x2="172" y2="400" transform="rotate(81, 400, 400)" opacity="0.81"></line><line x1="38" y1="400" x2="762" y2="400" transform="rotate(84, 400, 400)" opacity="0.39"></line><line x1="647" y1="400" x2="153" y2="400" transform="rotate(87, 400, 400)" opacity="0.91"></line><line x1="100" y1="400" x2="700" y2="400" transform="rotate(90, 400, 400)" opacity="0.23"></line><line x1="699.5" y1="400" x2="100.5" y2="400" transform="rotate(93, 400, 400)" opacity="0.26"></line><line x1="368.5" y1="400" x2="431.5" y2="400" transform="rotate(96, 400, 400)" opacity="0.84"></line><line x1="357" y1="400" x2="443" y2="400" transform="rotate(99, 400, 400)" opacity="0.14"></line><line x1="336" y1="400" x2="464" y2="400" transform="rotate(102, 400, 400)" opacity="0.79"></line><line x1="617" y1="400" x2="183" y2="400" transform="rotate(105, 400, 400)" opacity="0.37"></line><line x1="414.5" y1="400" x2="385.5" y2="400" transform="rotate(108, 400, 400)" opacity="0.51"></line><line x1="654" y1="400" x2="146" y2="400" transform="rotate(111, 400, 400)" opacity="0.60"></line><line x1="354.5" y1="400" x2="445.5" y2="400" transform="rotate(114, 400, 400)" opacity="0.87"></line><line x1="506.5" y1="400" x2="293.5" y2="400" transform="rotate(117, 400, 400)" opacity="0.64"></line><line x1="33.5" y1="400" x2="766.5" y2="400" transform="rotate(120, 400, 400)" opacity="0.73"></line><line x1="577.5" y1="400" x2="222.5" y2="400" transform="rotate(123, 400, 400)" opacity="0.66"></line><line x1="559" y1="400" x2="241" y2="400" transform="rotate(126, 400, 400)" opacity="0.74"></line><line x1="77.5" y1="400" x2="722.5" y2="400" transform="rotate(129, 400, 400)" opacity="0.55"></line><line x1="119" y1="400" x2="681" y2="400" transform="rotate(132, 400, 400)" opacity="0.22"></line><line x1="298.5" y1="400" x2="501.5" y2="400" transform="rotate(135, 400, 400)" opacity="0.87"></line><line x1="39.5" y1="400" x2="760.5" y2="400" transform="rotate(138, 400, 400)" opacity="0.40"></line><line x1="700" y1="400" x2="100" y2="400" transform="rotate(141, 400, 400)" opacity="0.46"></line><line x1="186" y1="400" x2="614" y2="400" transform="rotate(144, 400, 400)" opacity="0.88"></line><line x1="245.5" y1="400" x2="554.5" y2="400" transform="rotate(147, 400, 400)" opacity="0.36"></line><line x1="641.5" y1="400" x2="158.5" y2="400" transform="rotate(150, 400, 400)" opacity="0.31"></line><line x1="625" y1="400" x2="175" y2="400" transform="rotate(153, 400, 400)" opacity="0.71"></line><line x1="598.5" y1="400" x2="201.5" y2="400" transform="rotate(156, 400, 400)" opacity="0.17"></line><line x1="450.5" y1="400" x2="349.5" y2="400" transform="rotate(159, 400, 400)" opacity="0.17"></line><line x1="121" y1="400" x2="679" y2="400" transform="rotate(162, 400, 400)" opacity="0.84"></line><line x1="376" y1="400" x2="424" y2="400" transform="rotate(165, 400, 400)" opacity="0.08"></line><line x1="547.5" y1="400" x2="252.5" y2="400" transform="rotate(168, 400, 400)" opacity="0.86"></line><line x1="415.5" y1="400" x2="384.5" y2="400" transform="rotate(171, 400, 400)" opacity="0.36"></line><line x1="283" y1="400" x2="517" y2="400" transform="rotate(174, 400, 400)" opacity="0.28"></line><line x1="521" y1="400" x2="279" y2="400" transform="rotate(177, 400, 400)" opacity="0.51"></line><line x1="307" y1="400" x2="493" y2="400" transform="rotate(180, 400, 400)" opacity="0.98"></line><line x1="529" y1="400" x2="271" y2="400" transform="rotate(183, 400, 400)" opacity="0.47"></line><line x1="642" y1="400" x2="158" y2="400" transform="rotate(186, 400, 400)" opacity="0.91"></line><line x1="347.5" y1="400" x2="452.5" y2="400" transform="rotate(189, 400, 400)" opacity="0.96"></line><line x1="445" y1="400" x2="355" y2="400" transform="rotate(192, 400, 400)" opacity="0.29"></line><line x1="426" y1="400" x2="374" y2="400" transform="rotate(195, 400, 400)" opacity="0.19"></line><line x1="203.5" y1="400" x2="596.5" y2="400" transform="rotate(198, 400, 400)" opacity="0.84"></line><line x1="673.5" y1="400" x2="126.5" y2="400" transform="rotate(201, 400, 400)" opacity="0.78"></line><line x1="371" y1="400" x2="429" y2="400" transform="rotate(204, 400, 400)" opacity="0.16"></line><line x1="663" y1="400" x2="137" y2="400" transform="rotate(207, 400, 400)" opacity="0.93"></line><line x1="105.5" y1="400" x2="694.5" y2="400" transform="rotate(210, 400, 400)" opacity="0.16"></line><line x1="623" y1="400" x2="177" y2="400" transform="rotate(213, 400, 400)" opacity="0.92"></line><line x1="699.5" y1="400" x2="100.5" y2="400" transform="rotate(216, 400, 400)" opacity="0.91"></line><line x1="312" y1="400" x2="488" y2="400" transform="rotate(219, 400, 400)" opacity="0.49"></line><line x1="205.5" y1="400" x2="594.5" y2="400" transform="rotate(222, 400, 400)" opacity="0.64"></line><line x1="414.5" y1="400" x2="385.5" y2="400" transform="rotate(225, 400, 400)" opacity="0.23"></line><line x1="106.5" y1="400" x2="693.5" y2="400" transform="rotate(228, 400, 400)" opacity="0.45"></line><line x1="42" y1="400" x2="758" y2="400" transform="rotate(231, 400, 400)" opacity="0.36"></line><line x1="417" y1="400" x2="383" y2="400" transform="rotate(234, 400, 400)" opacity="0.38"></line><line x1="523.5" y1="400" x2="276.5" y2="400" transform="rotate(237, 400, 400)" opacity="0.27"></line><line x1="488.5" y1="400" x2="311.5" y2="400" transform="rotate(240, 400, 400)" opacity="0.65"></line><line x1="287" y1="400" x2="513" y2="400" transform="rotate(243, 400, 400)" opacity="0.53"></line><line x1="30.5" y1="400" x2="769.5" y2="400" transform="rotate(246, 400, 400)" opacity="0.97"></line><line x1="107.5" y1="400" x2="692.5" y2="400" transform="rotate(249, 400, 400)" opacity="0.64"></line><line x1="193.5" y1="400" x2="606.5" y2="400" transform="rotate(252, 400, 400)" opacity="0.53"></line><line x1="408.5" y1="400" x2="391.5" y2="400" transform="rotate(255, 400, 400)" opacity="0.08"></line><line x1="318" y1="400" x2="482" y2="400" transform="rotate(258, 400, 400)" opacity="0.58"></line><line x1="208.5" y1="400" x2="591.5" y2="400" transform="rotate(261, 400, 400)" opacity="0.94"></line><line x1="384" y1="400" x2="416" y2="400" transform="rotate(264, 400, 400)" opacity="0.81"></line><line x1="270.5" y1="400" x2="529.5" y2="400" transform="rotate(267, 400, 400)" opacity="0.67"></line><line x1="652.5" y1="400" x2="147.5" y2="400" transform="rotate(270, 400, 400)" opacity="0.34"></line><line x1="183" y1="400" x2="617" y2="400" transform="rotate(273, 400, 400)" opacity="0.33"></line><line x1="505.5" y1="400" x2="294.5" y2="400" transform="rotate(276, 400, 400)" opacity="0.46"></line><line x1="341" y1="400" x2="459" y2="400" transform="rotate(279, 400, 400)" opacity="0.22"></line><line x1="195" y1="400" x2="605" y2="400" transform="rotate(282, 400, 400)" opacity="0.47"></line><line x1="564.5" y1="400" x2="235.5" y2="400" transform="rotate(285, 400, 400)" opacity="0.74"></line><line x1="123.5" y1="400" x2="676.5" y2="400" transform="rotate(288, 400, 400)" opacity="0.61"></line><line x1="123" y1="400" x2="677" y2="400" transform="rotate(291, 400, 400)" opacity="0.73"></line><line x1="589" y1="400" x2="211" y2="400" transform="rotate(294, 400, 400)" opacity="0.54"></line><line x1="186" y1="400" x2="614" y2="400" transform="rotate(297, 400, 400)" opacity="0.18"></line><line x1="134" y1="400" x2="666" y2="400" transform="rotate(300, 400, 400)" opacity="0.54"></line><line x1="401.5" y1="400" x2="398.5" y2="400" transform="rotate(303, 400, 400)" opacity="0.58"></line><line x1="340.5" y1="400" x2="459.5" y2="400" transform="rotate(306, 400, 400)" opacity="0.65"></line><line x1="670" y1="400" x2="130" y2="400" transform="rotate(309, 400, 400)" opacity="0.86"></line><line x1="122.5" y1="400" x2="677.5" y2="400" transform="rotate(312, 400, 400)" opacity="0.38"></line><line x1="24.5" y1="400" x2="775.5" y2="400" transform="rotate(315, 400, 400)" opacity="0.32"></line><line x1="441" y1="400" x2="359" y2="400" transform="rotate(318, 400, 400)" opacity="0.70"></line><line x1="346" y1="400" x2="454" y2="400" transform="rotate(321, 400, 400)" opacity="0.66"></line><line x1="107" y1="400" x2="693" y2="400" transform="rotate(324, 400, 400)" opacity="0.25"></line><line x1="694.5" y1="400" x2="105.5" y2="400" transform="rotate(327, 400, 400)" opacity="0.54"></line><line x1="565.5" y1="400" x2="234.5" y2="400" transform="rotate(330, 400, 400)" opacity="0.28"></line><line x1="26.5" y1="400" x2="773.5" y2="400" transform="rotate(333, 400, 400)" opacity="0.34"></line><line x1="286" y1="400" x2="514" y2="400" transform="rotate(336, 400, 400)" opacity="0.30"></line><line x1="226" y1="400" x2="574" y2="400" transform="rotate(339, 400, 400)" opacity="0.16"></line><line x1="670" y1="400" x2="130" y2="400" transform="rotate(342, 400, 400)" opacity="0.76"></line><line x1="224" y1="400" x2="576" y2="400" transform="rotate(345, 400, 400)" opacity="0.79"></line><line x1="646" y1="400" x2="154" y2="400" transform="rotate(348, 400, 400)" opacity="0.10"></line><line x1="238" y1="400" x2="562" y2="400" transform="rotate(351, 400, 400)" opacity="0.94"></line><line x1="77.5" y1="400" x2="722.5" y2="400" transform="rotate(354, 400, 400)" opacity="0.20"></line></g></svg>