<svg xmlns="http://www.w3.org/2000/svg" version="1.1" xmlns:xlink="http://www.w3.org/1999/xlink" xmlns:svgjs="http://svgjs.dev/svgjs" viewBox="0 0 1422 800"><circle r="18" cx="55" cy="401" stroke-width="2" stroke="hsl(162, 50%, 50%)" fill="none" opacity="0.44"></circle><circle r="18" cx="913" cy="258" stroke-width="2" stroke="hsl(154, 50%, 50%)" fill="none" opacity="0.42"></circle><circle r="15" cx="742" cy="105" stroke-width="2" stroke="hsl(142, 50%, 50%)" fill="none" opacity="0.94"></circle><circle r="11" cx="931" cy="377" fill="hsl(154, 50%, 50%)" opacity="0.49"></circle><circle r="17.5" cx="864" cy="491" stroke-width="2" stroke="hsl(149, 50%, 50%)" fill="none" opacity="0.46"></circle><circle r="24" cx="282" cy="397" fill="hsl(157, 50%, 50%)" opacity="0.41"></circle><circle r="14.5" cx="799" cy="42" fill="hsl(153, 50%, 50%)" opacity="0.50"></circle><circle r="17" cx="1095" cy="530" fill="hsl(153, 50%, 50%)" opacity="0.55"></circle><circle r="18.5" cx="991" cy="578" fill="hsl(156, 50%, 50%)" opacity="0.74"></circle><circle r="15" cx="1239" cy="174" fill="hsl(128, 50%, 50%)" opacity="0.27"></circle><circle r="27.5" cx="436" cy="608" fill="hsl(109, 50%, 50%)" opacity="0.58"></circle><circle r="21" cx="641" cy="520" stroke-width="2" stroke="hsl(114, 50%, 50%)" fill="none" opacity="0.88"></circle><circle r="15.5" cx="1306" cy="682" fill="hsl(111, 50%, 50%)" opacity="0.95"></circle><circle r="25" cx="1226" cy="446" fill="hsl(129, 50%, 50%)" opacity="0.24"></circle><circle r="19.5" cx="970" cy="697" fill="hsl(156, 50%, 50%)" opacity="0.92"></circle><circle r="16.5" cx="1086" cy="53" stroke-width="2" stroke="hsl(165, 50%, 50%)" fill="none" opacity="0.84"></circle><circle r="21" cx="1382" cy="49" fill="hsl(81, 50%, 50%)" opacity="0.48"></circle><circle r="20.5" cx="1234" cy="559" stroke-width="2" stroke="hsl(129, 50%, 50%)" fill="none" opacity="0.79"></circle><circle r="15.5" cx="1240" cy="655" stroke-width="2" stroke="hsl(129, 50%, 50%)" fill="none" opacity="0.38"></circle><circle r="19.5" cx="1127" cy="168" fill="hsl(151, 50%, 50%)" opacity="0.10"></circle><circle r="26" cx="645" cy="278" fill="hsl(119, 50%, 50%)" opacity="0.69"></circle><circle r="12" cx="232" cy="78" stroke-width="2" stroke="hsl(167, 50%, 50%)" fill="none" opacity="0.86"></circle><circle r="13" cx="1223" cy="107" fill="hsl(125, 50%, 50%)" opacity="0.89"></circle><circle r="14" cx="749" cy="764" stroke-width="2" stroke="hsl(135, 50%, 50%)" fill="none" opacity="0.40"></circle><circle r="29" cx="466" cy="180" fill="hsl(105, 50%, 50%)" opacity="0.44"></circle><circle r="17" cx="741" cy="590" stroke-width="2" stroke="hsl(135, 50%, 50%)" fill="none" opacity="0.94"></circle><circle r="19.5" cx="1288" cy="240" stroke-width="2" stroke="hsl(118, 50%, 50%)" fill="none" opacity="0.66"></circle><circle r="21.5" cx="1381" cy="223" fill="hsl(84, 50%, 50%)" opacity="0.33"></circle><circle r="29.5" cx="1363" cy="445" stroke-width="2" stroke="hsl(91, 50%, 50%)" fill="none" opacity="0.19"></circle><circle r="18" cx="1240" cy="339" fill="hsl(129, 50%, 50%)" opacity="0.59"></circle><circle r="18.5" cx="342" cy="752" fill="hsl(135, 50%, 50%)" opacity="0.95"></circle><circle r="17.5" cx="280" cy="676" stroke-width="2" stroke="hsl(157, 50%, 50%)" fill="none" opacity="0.99"></circle><circle r="12.5" cx="314" cy="121" stroke-width="2" stroke="hsl(152, 50%, 50%)" fill="none" opacity="0.41"></circle><circle r="14" cx="992" cy="426" stroke-width="2" stroke="hsl(156, 50%, 50%)" fill="none" opacity="0.98"></circle><circle r="33" cx="410" cy="322" fill="hsl(115, 50%, 50%)" opacity="0.74"></circle><circle r="25.5" cx="1354" cy="332" fill="hsl(98, 50%, 50%)" opacity="0.91"></circle><circle r="15.5" cx="854" cy="384" stroke-width="2" stroke="hsl(149, 50%, 50%)" fill="none" opacity="0.68"></circle><circle r="15.5" cx="976" cy="121" stroke-width="2" stroke="hsl(166, 50%, 50%)" fill="none" opacity="0.16"></circle><circle r="20.5" cx="232" cy="217" stroke-width="2" stroke="hsl(168, 50%, 50%)" fill="none" opacity="0.87"></circle><circle r="17" cx="846" cy="589" fill="hsl(149, 50%, 50%)" opacity="0.64"></circle><circle r="25.5" cx="611" cy="68" fill="hsl(109, 50%, 50%)" opacity="0.91"></circle><circle r="10.5" cx="940" cy="38" fill="hsl(178, 50%, 50%)" opacity="0.98"></circle><circle r="21.5" cx="225" cy="546" fill="hsl(168, 50%, 50%)" opacity="0.25"></circle><circle r="18.5" cx="58" cy="724" stroke-width="2" stroke="hsl(162, 50%, 50%)" fill="none" opacity="0.76"></circle><circle r="30.5" cx="423" cy="482" stroke-width="2" stroke="hsl(109, 50%, 50%)" fill="none" opacity="0.37"></circle><circle r="15.5" cx="1099" cy="754" stroke-width="2" stroke="hsl(153, 50%, 50%)" fill="none" opacity="0.89"></circle><circle r="20" cx="1326" cy="134" fill="hsl(103, 50%, 50%)" opacity="0.72"></circle><circle r="19" cx="1097" cy="425" fill="hsl(153, 50%, 50%)" opacity="0.56"></circle><circle r="20" cx="1123" cy="643" stroke-width="2" stroke="hsl(150, 50%, 50%)" fill="none" opacity="0.32"></circle><circle r="15.5" cx="1304" cy="756" fill="hsl(111, 50%, 50%)" opacity="0.54"></circle><circle r="16.5" cx="145" cy="49" stroke-width="2" stroke="hsl(155, 50%, 50%)" fill="none" opacity="0.90"></circle><circle r="13.5" cx="1396" cy="131" fill="hsl(84, 50%, 50%)" opacity="0.57"></circle><circle r="22" cx="503" cy="60" stroke-width="2" stroke="hsl(103, 50%, 50%)" fill="none" opacity="0.61"></circle><circle r="25" cx="539" cy="294" stroke-width="2" stroke="hsl(100, 50%, 50%)" fill="none" opacity="0.69"></circle><circle r="17.5" cx="1379" cy="767" fill="hsl(84, 50%, 50%)" opacity="0.95"></circle><circle r="19.5" cx="772" cy="238" fill="hsl(139, 50%, 50%)" opacity="0.68"></circle><circle r="25.5" cx="608" cy="629" fill="hsl(109, 50%, 50%)" opacity="0.16"></circle><circle r="25" cx="635" cy="417" fill="hsl(114, 50%, 50%)" opacity="0.43"></circle><circle r="15" cx="1394" cy="569" fill="hsl(84, 50%, 50%)" opacity="0.61"></circle></svg>