<svg xmlns="http://www.w3.org/2000/svg" version="1.1" xmlns:xlink="http://www.w3.org/1999/xlink" xmlns:svgjs="http://svgjs.dev/svgjs" viewBox="0 0 1422 800"><defs><linearGradient x1="50%" y1="0%" x2="50%" y2="100%" id="ssscribble-grad"><stop stop-color="#2F2504" stop-opacity="1" offset="0%"></stop><stop stop-color="#73DE04" stop-opacity="1" offset="100%"></stop></linearGradient></defs><g fill="none" stroke-width="1.75" stroke="url(#ssscribble-grad)" stroke-linecap="round" stroke-dasharray="6"><path d="M1547.63 298.21C1494.7 324.72 1435.99 351.6 1389.62 379.18 1369.46 407.31 1379.18 437.2 1413.46 469.77 1462.12 504.14 1507.62 542.51 1535.97 585.44 1539.88 630.32 1515.75 679.08 1469.26 730.15 1410.41 778.82 1351.24 824.61 1302.78 863.21 1289.3 889.1 1368.58 825.74 1356.72 844.59 1329.05 888.25 1288.89 950.85 1240.81 1021.63 1187.98 1084.09 1135.48 1124.37 1086.67 1131.53 1042.67 1107.34 1005.77 1061.35 975.84 1013.58 952.56 988.92 934.69 1000.59 920.4 1051.1 905.39 1160.56 876.55 1204.07 857.45 1112.63 843.9 1065.22 827.17 1062.03 807.16 1108.73 787.1 1184.17 763.82 1249.9 737.31 1270.41 710.8 1234.91 681.68 1162.4 650.11 1091.67 618.49 1058.55 584.34 1076.93 547.9 1133.53 511.56 1199.35 473.32 1238.07 433.94 1230.28 395.83 1178.55 358.16 1103.29 322.52 1034.23 290.87 995.67 263.94 997.67 243.7 1032.33 227.42 1103.63 242.35 1092.97 263.77 1000.17 273.93 930.46 277.68 874.4 270.6 840.43 249.06 831.22 213.29 842.09 164.64 863.96 108.24 890.67 50.21 910.35 -1.09 917.29 -37.81 910.74 -54.29 888.5 -47.82 853.82 -23 809.23 14.55 759.48 53.97 708.79 81.03 657.35 87.9 609.64 69.03 566.69 25.72 526.55 -32.43 491.12 -91.32 459.43 -135.83 429.77 -153.35 402.2 -138.44 375.67 -97.32 349.71 -41.29 323.67 11.63 297.16 42.39 270.65 42.61 244.3 13.73 218.62 -35.62 193.52 -87.47 170.21 -125.32 149.87 -138.99 131.56 -122.3 117.89 -79.7 109.93 -21.82 104.78 38 105.4 86.81 110.9 117.75 118.13 57.41 102.82 12.72 58.51 -3.03 10.72 -0.1 -48.41 21.74 -113.04 59.77 -172.85 109.57 -220.12 164.67 -245.67 220.24 -246.46 270.31 -223.48 311.61 -185.08 342.69 -148.83 363.21 -127.84 374.95 -135.72 378.34 -177.08 377.45 -243.85 375.18 -318.25 375.03 -345.4 423.25 -269.49 455.12 -371.22 478.55 -438.06 503.65 -464.26 529.65 -436.4 555.98 -370.92 582.57 -301.09 609.08 -265.58 635.59 -286.07 661.39 -349.1 686.69 -419.3 712.33 -460.77 738.11 -449.79 764.68 -392.16 792.5 -315.09 822.22 -253.21 854.63 -231.41 889.27 -255.93 927.45 -309.6 969.37 -364.17 1013.09 -395.25 1059.55 -385.33 1107.33 -337.02 1153.13 -265.61 1196.28 -193.93 1233.74 -142.13 1262.86 -121.69 1281.79 -132.44 1288.65 -163.6 1278.44 -217.83 1222.08 -207.41 1206.99 -133.57 1216.45 -70.12 1243.03 -8.18 1286.4 45.23 1341.68 87.21 1401.39 115.16 1455.56 131.06 1477.12 130.9 1357.58 139.22 1379.47 160.21 1427.55 177.64 1487.19 198.63 1541.8 222.13 1575.92 246.19 1578.39 271.7 1547.63 298.21Q1547.63 298.21 1547.63 298.21" opacity="0.28"></path><path d="M1499.63 395.35C1450.35 420.2 1394.92 448.47 1348.48 479.9 1323.37 511.3 1324.23 545.73 1348.73 582.62 1390.4 618.8 1435.43 656.27 1471.32 693.47 1490.1 727.49 1484.81 758.26 1456.36 783.24 1410.27 801.29 1354.69 810.57 1299.45 809.83 1226.9 773.67 1281.15 800.29 1301.66 878.38 1302.13 942.05 1289.7 1003.23 1265.63 1049.92 1231.8 1072.78 1190.69 1067.7 1145.62 1037.13 1098.04 994.85 1051.47 954.62 1007.78 933.95 966.78 946.03 930.31 990.94 898.25 1058.54 869.82 1127.93 844.9 1176.55 822.45 1186.83 802.37 1157.34 783.26 1100.25 764.16 1041.18 746.05 1009.83 726.91 1021.19 706.15 1073.67 685.63 1145.71 663.03 1204.76 638.18 1222.41 613.33 1190.54 586.8 1124.18 558.92 1054.87 531.27 1013.78 502.72 1017 473.95 1059.59 446.18 1121.95 419.25 1173.15 394.23 1190.43 371.6 1166.51 352.38 1108.4 337.74 1036.98 325.86 976.52 349.33 1075.51 349.65 1039.1 338.17 984.57 316.47 920.27 283.43 858.37 240.27 807.25 189.4 773.87 135.17 758.76 83.92 760.83 40.99 773.74 12.41 790.77 1.18 809.38 8.83 821.67 33.26 824.86 66.33 819.94 101.66 804.65 129.52 780.95 139.76 750.47 128.87 715.24 96.07 677.88 46.15 637.96 -10.74 598.76 -62.01 561.59 -96.09 524.11 -104.27 489.51 -84.07 458.12 -42.55 426.81 10.35 398.65 59.63 373.79 89.36 348.94 92.48 327.98 69.45 310.88 26.2 293.86 -22.92 280.77 -63.98 271.37 -87.37 261.67 -84.95 254.83 -57.27 249.66 -10.61 241.93 45.72 233.02 100.41 220.44 143.73 201.07 169.21 174.36 175.13 138.49 162.23 94.48 137.36 42.58 108.22 -14.33 80.06 -69.65 61.73 -119.56 57.32 -157.2 67.38 -177.65 92.72 -178.4 130.22 -159.86 176.6 -130.53 227.18 -97.26 277.57 -72.06 325.48 -67.96 367.37 -89.68 402.1 -137.83 429.46 -203.27 449.72 -271.47 464.37 -324.12 473.44 -346.71 479.76 -333.35 485.15 -289.85 490.74 -215.69 511.87 -247.64 530.05 -351.12 543.63 -403.31 560.29 -413.86 579.85 -377.69 599.57 -313.31 621.9 -249.46 646.75 -217.58 671.61 -235.2 698.39 -291.72 727.08 -358.86 755.93 -406.43 786.97 -410.49 820.26 -369.56 853.94 -300.91 890 -231.94 928.22 -188.42 966.36 -184.66 1005.87 -217.1 1045.67 -268.26 1083.34 -317.65 1119.02 -342.32 1150.76 -332.24 1176.92 -289.41 1196.28 -225.09 1207.22 -156.93 1189.41 -88.88 1146.37 -168.29 1168.49 -160.8 1202.25 -131.61 1248.25 -87.78 1302.29 -35.62 1357.31 21.01 1406.26 75.27 1441.33 123.44 1457.58 164.99 1452.35 197.71 1427.25 222.73 1390.77 240.82 1350.62 254.19 1317.98 265.26 1304.32 273.15 1313.77 281.72 1346.75 292.41 1397.41 302.39 1453.85 315.66 1502.02 332.67 1529.96 349.64 1529.36 370.5 1499.63 395.35Q1499.63 395.35 1499.63 395.35" opacity="0.57"></path><path d="M1451.62 499.93C1405.96 523.13 1354.01 546.83 1308.23 570.62 1279.31 593.97 1272.28 616.54 1286.99 637.33 1319.96 656.47 1360.97 672.33 1399.74 683.72 1434.32 693.72 1379.95 684.16 1306.93 670.73 1254.78 665.62 1208.83 665.18 1173.98 673.3 1153.19 693.5 1146.43 726.26 1151.38 771.66 1166.4 825.49 1185.52 883.7 1204.2 938.87 1225.68 995.03 1215.2 976.72 1182.02 920.29 1150.74 890.08 1114.71 878.94 1076.11 895.2 1035.26 939.09 994.69 1001.67 955.63 1067.35 917.15 1117.58 881.21 1137.92 847.97 1121.88 815.99 1077.76 786.41 1021.07 758.85 974.62 732.13 959.82 706.75 983.56 682.36 1039.45 658.21 1107.03 634.59 1159.44 611.39 1174.42 588.2 1146.02 565.98 1085.91 544.95 1019.29 524.15 972.48 505.01 962.06 487.99 989.13 465.1 1070.13 436.83 1121.15 432.49 1047.09 431.35 980.25 432.71 923.18 435.48 889.32 435.99 884.79 435.05 905.72 430.57 941.37 419.57 981.07 401.91 1009.58 376.2 1018.41 342.33 1005.21 300.98 970.34 253.85 920.4 204.77 862.06 156.7 804.57 114.29 754.67 122.6 698.58 171.39 709.39 116.17 694.42 64.31 679.31 12.22 660.1 -29.7 638.2 -53.36 614.61 -53.16 589.94 -28.82 565.19 12.36 540.04 61.96 515.64 107.62 492.45 136.19 469.25 141.84 447.8 124.33 427.78 87.48 407.34 42.38 387.5 0.42 367.33 -29.94 345.5 -39.85 321.73 -27.15 294.77 5.36 264.5 52.4 229.59 105.39 189.48 155.82 146.36 196.16 99.31 221.76 50.24 230.18 3.72 223.4 -38.94 205.63 -73.51 144.49 -85.98 172.31 -7.45 228.42 -18.67 272.97 -54.88 318.82 -109.22 363.37 -173.06 406 -232.87 444.3 -276.29 477.79 -292.45 506.9 -279.29 531.41 -241.12 552.27 -191.29 569.63 -150.4 584.93 -133.15 599.3 -149.82 611.9 -198.74 624.97 -265.34 639.29 -327.53 653 -363.56 668.67 -359.98 686.69 -317.77 704.59 -255.74 725.07 -197.97 748.27 -169.57 771.46 -184.52 796.82 -234.57 824.1 -297.57 851.27 -348.88 880.11 -365.81 910.15 -342.07 939.58 -286.68 969.48 -218.9 998.97 -161.68 1026.67 -132.55 1052.58 -137.78 1075.42 -171 1102.1 -241.52 1122.36 -265.33 1114.82 -194.17 1106.02 -130.38 1094.69 -70.96 1083.34 -26.23 1076.83 -1.85 1075.85 1.47 1083.37 -11.46 1102.02 -36.23 1131.61 -62.59 1171.66 -83.23 1219.15 -95.44 1270.44 -93.68 1320.1 -78.13 1362.02 -50.5 1391.28 -13.08 1403.55 30.1 1398.64 77.59 1377.2 124.85 1343.77 169.48 1307.79 212.29 1275.85 250.45 1256.42 284.06 1256.81 314.75 1277.8 341.86 1317.12 366.47 1368.03 389.42 1419.95 411.37 1461.4 433.2 1483.49 454.6 1480.19 476.74 1451.62 499.93Q1451.62 499.93 1451.62 499.93" opacity="0.38"></path><path d="M1403.63 444.21C1361.58 465.74 1313.28 484.11 1268.81 499.27 1230.35 520.11 1269.26 544.68 1323.65 549.47 1369.35 554.14 1364.96 571.95 1313.21 595.39 1266.7 620.72 1218.05 654.16 1172.67 695.88 1134.47 742.99 1106.51 794.09 1089.61 845.01 1127.31 891.01 1136.31 837.88 1109.31 895.89 1085.13 954.9 1057.4 1015.27 1027.52 1062.74 995.47 1085.83 962.96 1078.76 930.93 1043.78 898.31 994.28 866.98 945.22 837.38 914.39 807.77 915.29 780.06 948.78 754.39 1005.78 728.76 1068.01 705.11 1113.91 683.57 1126.41 662.03 1101.32 643.11 1047.5 626.78 984.66 610.5 934.4 596.88 912.49 585.86 923.91 574.84 963.94 566.27 1016.09 559.82 1061.92 552.77 1087.72 547.02 1083.14 541.74 1049.42 534.29 995.02 525.63 933.29 514.44 878.44 498.87 841.14 478.93 827.21 453.64 835.39 422.93 861.67 386.78 895.34 345.83 926.41 302.48 948.91 257.87 954.96 214.87 943.12 176.99 914.93 146.57 873.58 126.59 824.75 118.06 772.28 122.04 722.32 137.81 678.46 160.77 641.77 188.53 614.15 215.84 594.71 239.6 579.75 196.62 572.91 131.76 570.6 82.31 568.89 37.83 563.98 6.21 555.56 -7.47 546.72 -0.07 534.41 27.26 518.83 67.46 503.05 113.58 484.34 155.63 462.8 182.9 441.26 190.67 417.41 178.27 391.24 147.87 364.86 107.84 335.83 67.12 304.05 32.64 271.85 13.09 236.86 12.18 199.49 29.55 162.57 63.41 124.63 108.18 87.27 157.48 53.44 204.56 23.46 243.75 -0.15 239.31 22.61 191.85 27.8 213.14 -36.58 238 -93.08 269.33 -150.73 304.91 -199.45 343.87 -230.06 383.74 -237.01 422.89 -218.93 461.63 -183.29 497.94 -139.12 531.41 -100.5 563.02 -82.55 591.77 -92 618.05 -129.94 642.72 -187.92 665.68 -250.35 687.51 -298.71 708.5 -318.45 729.12 -302.89 749.79 -256.9 770.25 -198.33 791.18 -146.68 812.72 -121.58 834.25 -134.06 855.89 -177.77 877.4 -235.73 898.68 -288.48 919.39 -315.64 939.02 -308.24 957.82 -269.11 974.76 -209.76 989.17 -148.1 1012.56 -172.58 1000.66 -142.07 1006.99 -57.14 1020.61 -4.09 1041.99 36.51 1071.77 61.53 1109.07 70.06 1152.5 64.99 1199.38 51.17 1245.5 31.07 1287.44 12.03 1320.73 -1.88 1345.68 -9.95 1306.38 30.65 1258.11 72.88 1229.13 106.94 1209.29 142.69 1204.07 178.36 1217.14 215.11 1246.97 250.09 1289.76 282.62 1338.8 315.03 1385.16 344.74 1419.83 371.67 1436.49 398.46 1430.9 422.67 1403.63 444.21Q1403.63 444.21 1403.63 444.21" opacity="0.33"></path><path d="M1355.62 317.57C1317.13 337.45 1272.62 355.36 1230.09 371.52 1187.42 395.58 1201.06 442.15 1245.99 468.76 1280.46 489.7 1309.59 513.87 1328.58 542.21 1335.53 574.1 1327.82 610.58 1306.5 651.31 1274.08 693.52 1233.75 737.26 1189.79 779.92 1145.7 817.56 1105.41 848.48 1071.52 869.35 1036.12 808.15 1064.12 838.03 1063.37 918.36 1053.94 992.68 1011.8 1015.72 982.47 957.85 960.78 911.84 938.15 875.72 915.28 861.54 891.8 876.14 868.71 916.43 846.48 972.43 824.1 1028.6 802.86 1068.2 782.97 1078.42 763.09 1056.46 745.04 1008.88 728.69 950.75 704.66 883.86 661.39 911.2 639.9 979.31 624.03 1018.58 606.97 1037.46 587.99 1031.05 566.48 1000.81 542.07 952.57 514.26 896.54 483.57 842.64 449.47 800.44 412.36 775.33 374.06 769.51 334.71 780.36 295.99 802.35 260.42 831.2 229.15 858.06 204.46 877.31 187.68 886.96 180.14 883.13 182.59 866.46 192.99 838.64 211.15 802.15 234.53 760.68 257.79 715.85 278.86 671.78 293.54 630.7 297.12 592.41 288.63 559.19 267.11 530.92 233.55 506.68 191.47 486.42 145.79 468.96 102.39 454.13 67.38 440.41 46.26 426.74 41.6 414.13 54.85 400.41 84.03 384.96 122.63 369.74 165.13 352.31 203.62 332.42 229.48 312.54 238.99 290.69 231.22 267.18 207.17 243.91 172.95 219.47 135.27 194.58 99.47 170.76 73.39 147.64 61.34 126.4 64.4 107.78 83.39 92.72 115.49 82.51 156.56 76.32 201.79 75.94 245.99 81.58 285.03 90.01 315.44 102.39 335.57 116.57 344.03 130.85 311.94 110.17 287.44 62.73 272.69 17.44 263.12 -34.23 259.83 -86.56 262.03 -132.03 271.22 -165.02 286.64 -179.91 307.22 -175.51 332.36 -152.59 360.64 -116.42 391.73 -78.13 424.01 -46.08 456.38 -30.41 489.52 -38.56 521.62 -70.38 552.18 -120.87 582.56 -178.94 611.15 -230.94 637.84 -263.24 664.24 -267.82 688.92 -242.86 711.92 -195.31 734.82 -141.12 756.23 -95.54 776.11 -73.58 795.99 -83.78 813.88 -121.35 829.71 -173.59 852.18 -242.88 884.94 -222.4 894.76 -142.36 904.71 -56.45 917.4 -147.55 930.74 -175.08 945.96 -169.67 966.36 -145.03 992.61 -105.44 1024.34 -55.92 1061.21 -3.61 1102.02 45.23 1144.12 86.89 1185.85 117.51 1224.19 136.57 1201.88 108.57 1202.6 154.07 1263.86 185.77 1309.2 208.53 1349.28 231.44 1377.26 253.72 1388.97 276.29 1381.49 297.68 1355.63 317.56Q1355.62 317.57 1355.62 317.57" opacity="0.31"></path><path d="M1307.63 323.12C1272.68 341.34 1232.06 361.19 1192 382.67 1158.45 404.34 1135.4 427.99 1125.28 453.8 1129.36 480.13 1145.3 508.93 1169.75 540.16 1200.02 571.75 1230.03 605.33 1255.4 640.15 1274.02 673.72 1281.92 706.61 1278.22 737.11 1263.72 763.01 1239 783.55 1206.54 796.83 1168.74 802.68 1128.64 799.96 1089.09 788.73 1051.89 772.54 1019.3 751.8 992.37 729.98 964.29 708.26 943.6 734.61 945.01 790.76 949.23 839.77 953.36 890.66 956.37 935.92 960.02 975.43 953.34 932.5 942.47 870.63 933.41 835.15 922.06 814.86 908.77 816.47 894.95 841.89 879.66 885.95 863.2 939.07 846.59 988.7 829.1 1022.26 810.88 1030.41 792.65 1011.41 774.12 969.95 755.23 917.26 736.19 866.59 716.5 829.71 695.95 814.26 674.87 823.15 652.46 851.86 628.45 891.89 603.51 934.63 576.62 968.1 547.67 984.74 517.84 981.71 486.15 958.19 453.02 918.72 420.08 869.44 386.9 818.3 354.59 772.51 324.87 737.1 298.17 715.64 275.98 708.35 253.99 722.46 253.63 783.37 274.23 806.16 292.26 812.6 312.07 809.71 330.89 798.07 344.38 778.92 351.43 753.21 349.68 723.08 337.12 689.12 314.36 653.87 282.39 618.95 243.65 583.54 201.78 550.1 161.23 519.14 126.49 488.99 101.85 461.44 90.73 436.33 93.82 411.92 111.51 389.45 141.45 368.62 177.91 348.01 216.68 328.63 251.63 310.4 281.36 283.86 251.09 239.72 203.9 223.5 134.06 207.34 179.61 213.46 238.2 219.72 279.58 219.92 318.24 216.59 351.46 207.66 377.45 191.21 395.21 166.97 404.96 134.46 406.62 95.35 402.31 50.82 394.02 3.95 381.94 -40.3 369.54 -78.67 358.56 -106.49 345.35 -120.14 344.6 -59.58 357.86 -9.82 371.28 13.39 388.07 22.07 407.37 11.74 428.74 -18.25 451.51 -63.57 474.92 -116.6 499.31 -166.91 523.54 -204.34 547.08 -220.27 570.97 -211.86 593.76 -180.35 615.17 -133.29 636.64 -84.21 656.57 -44.59 674.8 -25.58 693.02 -33.71 709.11 -65.41 723.14 -111.44 743.32 -180.3 775.5 -198.14 788.94 -137.89 798.6 -84.77 808.2 -34.84 818.41 3 830.69 22.94 844.7 23.48 861.21 7.38 880.88 -21.6 903.93 -54.83 930.73 -84.87 960.73 -107.43 994.13 -116.35 1030.28 -110.21 1067.33 -89.97 1104.76 -57.42 1140.72 -16.71 1172.91 28.99 1199.96 74.75 1219.82 117.02 1231.59 154.32 1234.13 184.17 1227.12 206.41 1212.87 221.23 1191.88 229.74 1166.75 233.76 1118.82 228.71 1177.79 230.46 1238.45 240.98 1278.67 249.54 1312.04 260.87 1333.64 274.7 1340.92 288.72 1331.95 304.89 1307.63 323.12Q1307.63 323.12 1307.63 323.12" opacity="0.44"></path><path d="M1259.63 451.96C1191.92 485.1 1121.73 525.73 1080.24 571.15 1083.59 614.1 1122.16 656.17 1172.8 689.76 1216.08 711.08 1227.91 714.03 1204.18 695.87 1151.88 671.17 1083.02 644.97 1013.54 637.82 952.12 668.54 906.68 737.14 876.61 827.69 856.62 916.76 836.43 796.62 814.8 779.05 797.72 856.75 772.66 948.68 739.53 982.41 706.39 930.98 666.74 835.91 621.32 771.01 575.77 780.08 524.87 845.31 471.26 911.1 421.31 933.1 375.16 889.84 339.87 806.25 318.86 718.46 316.73 661.11 334.72 643.7 375.55 677.4 376.59 722.57 288.25 688.23 213.31 647.33 155.88 600.27 139.74 554.49 168.44 506.79 231.92 465.21 299.63 432.07 333.24 398.93 320.38 375.81 272.1 361.01 209.9 344.3 168.52 331.08 166.03 314.55 202.26 285.94 267.75 242.45 341.45 179.43 406.59 105.04 450.42 26.59 471.28 -35.1 464.61 -52.1 433.63 66.06 442.26 26.56 457.51 -63.5 481.72 -147.6 511.35 -169.47 542.96 -117.38 576.3 -29.02 609.44 22.41 642.58 -11.28 673.94 -96.5 704.82 -161.41 737.68 -158.36 773.75 -84.94 815.93 8.85 863.79 70.13 920.24 72.6 983.78 31.66 1046.71 -24.38 1105.73 -53.69 1150.11 -40.98 1172.67 9.58 1168.14 83.35 1137.5 159.13 1098.31 228.36 1062.53 279.98 1050.59 316.09 1077.37 339.92 1137.61 358.13 1212.6 377.68 1273.67 394.75 1293.24 418.83 1259.63 451.96Q1259.63 451.96 1259.63 451.96" opacity="0.76"></path><path d="M1211.62 497.45C1151.31 527.27 1085.95 553.15 1039.64 573.19 1027.6 590.91 1047.76 599.05 1087.04 595.74 1148.62 583 1130.73 575.49 1053.87 633.94 991.44 703.62 931.87 783.03 880.45 848.02 837.17 875.66 803.43 855.36 776.4 796.59 755.14 738.58 735.41 714.56 714.07 748.57 694.05 828.24 669.66 907.64 639.84 934.42 610.02 891.22 576.16 806.56 539.95 735.3 505.04 717.81 470.52 756 440.09 818.32 415.44 870.08 400.06 876.51 397.38 835.38 402.84 762.16 419.59 682.87 442.93 619.93 459.62 582.97 466.43 572.8 453.9 578.82 416.66 596.97 358.85 611.53 290.94 616.02 229.79 615.88 192.66 603.91 193.2 583.15 227.99 559.8 287.31 532.11 347.62 502.29 380.07 472.46 375.22 441.92 338.93 409.03 284.1 373.55 237.14 331.27 215.42 279.73 223.68 223.55 263.14 159.89 322 95.76 388.38 43.77 449.26 11.13 496.68 8.99 535.98 54.8 546.77 112.43 547.2 22.24 548.7 -61.93 557.63 -117.11 574.11 -111.14 591.37 -51.4 615.15 27.2 644.97 70.41 674.8 43.66 709.25 -29.68 748.23 -97.85 787.99 -120.37 833.32 -79.38 883.5 0.47 933.44 81.11 985.18 128.16 1033.73 131.58 1086.42 75.62 1086.54 25.04 1038.46 79.94 1010.65 139.14 997.93 201.76 1011.52 259.43 1055.1 314.43 1119.03 360.53 1185.36 399.06 1233.17 435.26 1244.08 467.62 1211.63 497.44Q1211.62 497.45 1211.62 497.45" opacity="0.89"></path><path d="M1163.62 386.62C1110.68 413.13 1051.27 431.22 1003.22 441.76 979.36 453.06 981.79 458.98 1004.85 463.21 1042.56 474.06 1078.77 491.34 1103.05 521.21 1113.05 565.42 1102.53 624.28 1074.76 692.2 1033.98 755.13 985.3 802.1 934.97 818.08 883.81 801.05 836.94 755.24 795.74 700.16 757.41 667.37 723.79 673.38 693.71 723.75 664.8 799.75 637.34 865.91 610.83 886.42 584.32 850.92 560.01 777.99 538.93 706.25 519.02 668.7 504.41 677.31 496.8 719.88 493.67 796.1 520.36 764.97 531.7 670.48 524.73 604.19 503.81 551.01 466.22 514.2 414.33 492.8 354.34 482.69 297.2 477.01 254.71 476.87 237.19 473.21 250.82 462.91 288.64 452.92 342.68 434.93 395.62 408.42 426.39 381.91 428.16 348.14 403.49 308.13 359.02 268.44 313.34 223.87 280.69 178.07 266.71 137.81 278.73 104.27 312.75 84.8 362.26 80.76 419.12 95.87 474.66 127.42 525.25 159.22 566.12 183.67 597.18 184.48 619.23 151.22 635.1 88.35 648.4 12.25 657.85 -49.75 669.17 -73.46 684.55 -46.15 699.29 15.34 719.58 82.9 746.09 118.41 772.6 97.92 804.07 37.14 839.32 -28.62 873.93 -68.77 910.84 -59.7 947.34 -7.49 979.98 67.01 1007.77 136.6 1026.58 181.24 1036.38 192.86 1033.57 177.33 1017.73 149.14 984.22 105.57 949.04 115.98 988.32 164.27 1040.41 205.97 1101.18 248.29 1155.87 286.98 1190.79 326.43 1194.39 360.1 1163.63 386.61Q1163.62 386.62 1163.62 386.62" opacity="0.80"></path><path d="M1115.62 297.24C1069.96 320.44 1017.43 342.84 970.5 365.52 939.02 389.88 926.67 417.59 932.41 451.03 954.73 489.15 983.71 535.1 1011.4 587.81 1035.84 640.53 1048.38 691.65 1047.66 732.49 1036.23 755.72 1013.38 756.37 982.96 732.35 946.77 694.62 908.23 651.03 870.44 618.66 831.67 615.47 795.81 645.13 763.97 702.91 732.26 770.61 704.54 823.45 681.34 838.42 658.14 810.02 640.57 749.54 628.54 682.52 610.05 659.1 596.69 759.57 572.49 721.94 542.8 674.04 502.76 619.33 454.17 566.12 402.32 515.47 352.54 473.17 313.22 439.09 290.48 410.4 289.63 386.67 312.15 365.09 350.13 345.19 397.96 324.24 443.62 301.04 472.19 277.85 479.11 253.5 465.02 229.66 432.47 207.49 393.54 189.02 358.39 177.52 331.33 171.4 321.54 175.5 329.9 190.4 353.54 207.86 390.32 229.26 434.33 246.76 482.57 248.6 529.77 231.89 572.77 192.43 612.36 134.84 646.3 68.94 675.29 11.71 701.05 -20.26 724.17 -16.26 746.22 24.15 767.3 82.22 789.14 138.01 812.33 166.41 835.53 151.46 858.98 103.33 881.65 44.58 903.35 -4.25 922.42 -20.72 936.87 -0.53 948.07 48.83 952.34 113.22 948.5 175.11 912.78 237.34 918.22 191.25 977.57 189.46 1029.72 196.22 1081.86 210.7 1123.36 230.09 1146.41 251.14 1144.19 274.04 1115.63 297.23Q1115.62 297.24 1115.62 297.24" opacity="0.09"></path><path d="M1067.62 372.67C1029.13 392.55 984.13 417.72 940.84 447.61 906.12 477.64 883.54 512.29 874.33 550.12 879.26 586.31 893.54 622.47 912.53 654.47 956.41 625.15 884.62 605.77 848.33 684.06 823.83 740.19 801.19 780.2 781.31 790.42 761.43 768.46 745.25 720.53 732.25 662.32 712.95 592.35 675.73 590.83 649.77 638.23 626.25 671.59 597.05 693.36 561.74 700.09 522.1 693.6 478.7 673.08 434.91 643.25 395.21 606.28 363.1 566.97 343.59 529.11 338.23 490.52 349.49 455.93 376.54 426.27 412.16 397 453.13 372.25 491.62 352.37 522.74 325.45 488.01 301.56 443.1 304.91 402.07 311.6 386.66 316.38 414.33 292.79 443.43 260.01 477.56 214.67 513.45 160.6 551.18 106.64 587.47 60.52 620.85 33.07 653.67 29.73 683.24 53.05 709.37 98.03 735.1 148.56 758 192.46 777.88 214.42 797.77 204.2 813.69 168.22 825.45 119.76 840.13 54.8 844.37 68.54 835.51 138.91 830.26 193.99 824.66 243.8 821.62 283.01 826 310.35 837.61 325.66 858.57 332.42 889.57 331.06 929.04 327.65 973.82 325.91 1018.95 322.53 1058.98 324.05 1087.18 331.53 1099.97 339.13 1093.49 352.78 1067.63 372.66Q1067.62 372.67 1067.62 372.67" opacity="0.98"></path><path d="M1019.61 491.94C951.89 525.07 879.71 563.81 832.83 596.15 831.59 613.3 892.89 521.52 887.38 534.91 871.72 615.69 844.55 708.71 811.41 742.41 778.27 690.97 742.31 594.67 700.54 524.96 653.03 516.43 592.51 553.41 522.69 594.44 456.94 626.25 405.42 622.95 390.55 595.38 413.14 555.65 471.89 513.2 539.61 480.06 573.23 446.93 564.69 426.25 528.21 408.55 477.25 378.69 445.34 330.27 442.7 255.03 461.63 170.57 501.6 98.44 547.61 82.69 598.48 128.1 643.82 210.97 676.96 262.41 710.1 228.71 727.89 149.12 734.45 92.63 745.86 90.99 757.61 151.23 782.11 233.37 828.17 314.37 895.23 371.98 970.47 409.31 1031.26 434.39 1053.23 458.79 1019.62 491.93Q1019.61 491.94 1019.61 491.94" opacity="0.98"></path><path d="M971.62 463.74C918.68 490.24 857.88 502.37 807.51 498.82 770.87 483.82 780.44 462.89 783.17 531.33 781.84 606.88 768.26 673.91 741.75 694.42 715.24 658.92 678.32 585.15 633.7 512.9 589.2 467.24 539.5 456.27 493.32 467.27 450.54 505 509.65 512.99 587.62 479.34 618.39 452.83 623.25 416.6 607.09 369.9 573.1 319.79 541.32 258.02 522.37 195.75 510.87 150 516.48 132.85 534.23 159.08 556.51 211.9 583.35 274.92 609.86 310.42 636.37 289.91 660.04 233.62 683.7 177.51 711.89 140.33 747.64 144.79 793.88 181.07 847.58 237.43 907.48 298.01 960.9 349.35 996.5 398.84 1002.39 437.22 971.63 463.73Q971.62 463.74 971.62 463.74" opacity="0.64"></path><path d="M923.62 333.31C885.13 353.19 839.17 363.56 795.27 367.87 758.08 376 729.8 385.84 710.2 404.66 698.77 436.79 690.48 483.7 681.14 540.45 673.95 595.35 661.4 636.2 641.52 646.42 621.64 624.46 596.31 575.81 569.04 518.64 543.92 464.79 521.19 424.38 506.56 399.64 500.1 388.89 507.28 385.31 529.9 381.06 559.23 380.05 597.13 371.22 635.62 351.34 661.48 331.45 674.02 302.41 674.08 268.96 624.23 265.43 676.1 331.8 720.21 275.08 752.49 232.9 791.1 207.08 833.16 201.01 873.6 208.25 911.65 229.44 939.45 255.77 953.96 285.91 949.49 313.42 923.63 333.3Q923.62 333.31 923.62 333.31" opacity="0.17"></path><path d="M875.62 309.84C822.69 336.35 759.12 379.62 708.93 441.14 668.6 509.12 636.83 577.92 610.32 598.42 583.81 562.92 567.59 487.47 573.17 420.79 588.61 365.47 630.69 327.88 683.62 301.37 714.39 274.86 725.37 264.46 726.09 285.03 715.12 316.96 717.42 370.92 743.93 406.42 770.44 385.92 816.13 338.61 861.85 305.38 895.88 278.61 906.39 283.33 875.62 309.84Q875.62 309.84 875.62 309.84" opacity="0.94"></path></g></svg>